<?xml version="1.0" encoding="utf-8"?>
<!-- Generator: Adobe Illustrator 16.0.4, SVG Export Plug-In . SVG Version: 6.00 Build 0)  -->
<!DOCTYPE svg PUBLIC "-//W3C//DTD SVG 1.1//EN" "http://www.w3.org/Graphics/SVG/1.1/DTD/svg11.dtd">
<svg version="1.1" id="Layer_1" xmlns="http://www.w3.org/2000/svg" xmlns:xlink="http://www.w3.org/1999/xlink" x="0px" y="0px"
	 width="612px" height="756px" viewBox="0 0 612 756" enable-background="new 0 0 612 756" xml:space="preserve">
<path fill="#505050" d="M493.166,559.89c15.791,0,30.928-3.056,44.681-8.514C581.363,534.057,612,492.286,612,443.457
	c0-64.475-53.122-116.651-118.688-116.651c-0.146,0-0.219,0-0.364,0c-19.575-75.027-91.618-130.696-177.56-130.696
	c-79.393,0-146.924,47.446-172.175,113.813c-5.749-0.801-11.643-1.237-17.61-1.237C56.251,308.686,0,364.865,0,434.288
	c0,66.148,51.085,120.29,115.996,125.165"/>
</svg>
